REM DIRINDEX 1\2,1\3
REM DIRNAME folder01,folder02,folder03
TITLE ""
FILE "ScrambleS_3Part1_Theme038.mp3" MP3
  TRACK 01 AUDIO
    TITLE "3:cjc080_0192"
    INDEX 01 00:00:00
  TRACK 02 AUDIO
    TITLE "0:"
    INDEX 01 00:01:24
  TRACK 03 AUDIO
    TITLE "2:cjc080_0193"
    INDEX 01 00:02:45
  TRACK 04 AUDIO
    TITLE "0:"
    INDEX 01 00:04:66
  TRACK 05 AUDIO
    TITLE "2:cjc080_0194"
    INDEX 01 00:06:08
  TRACK 06 AUDIO
    TITLE "0:"
    INDEX 01 00:08:64
